<svg width="32" height="38" viewBox="0 0 32 38" fill="none" xmlns="http://www.w3.org/2000/svg">
<path d="M0.778337 38C0.451771 38 0.261275 37.6314 0.450139 37.365L3.42414 33.1699C3.72838 32.7407 3.89245 32.228 3.89388 31.7019L3.96363 5.98373C3.9726 2.67638 6.65625 0 9.96361 0H15.4807C18.9425 0 21.9048 0.722198 24.3676 2.16659C26.8304 3.59924 28.7182 5.66015 30.0309 8.34931C31.3436 11.0267 32 14.2326 32 17.9669C32 21.7246 31.3378 24.9599 30.0135 27.6725C28.6892 30.3734 26.7607 32.4519 24.2282 33.9081C21.6957 35.3525 4.40283 38 0.778337 38ZM8.30137 26.1994C8.30137 29.5131 10.9877 32.1994 14.3014 32.1994H14.7139C17.6647 32.1994 20.11 31.624 22.0501 30.4732C23.9901 29.3224 25.4364 27.6842 26.389 25.5587C27.3416 23.4333 27.8179 20.9026 27.8179 17.9669C27.8179 15.0546 27.3474 12.5474 26.4064 10.4454C25.4655 8.33169 24.0598 6.71115 22.1895 5.58382C20.3191 4.44474 17.9899 3.87521 15.2019 3.87521H14.3014C10.9877 3.87521 8.30137 6.5615 8.30137 9.87521V26.1994Z" fill="#D4A800"/>
<circle cx="2.5" cy="2.5" r="2.5" transform="matrix(-1 0 0 1 20 8)" fill="#D4A800"/>
<circle cx="2.5" cy="2.5" r="2.5" transform="matrix(-1 0 0 1 20 15)" fill="#D4A800"/>
<circle cx="2.5" cy="2.5" r="2.5" transform="matrix(-1 0 0 1 20 22)" fill="#D4A800"/>
</svg>
